<svg width="26" height="26" viewBox="0 0 26 26" fill="none" xmlns="http://www.w3.org/2000/svg">
<path d="M13.1198 0.619019C6.21566 0.619019 0.619049 6.21563 0.619049 13.1198C0.619049 20.024 6.21566 25.6206 13.1198 25.6206C20.024 25.6206 25.6206 20.024 25.6206 13.1198C25.6206 6.21563 20.024 0.619019 13.1198 0.619019ZM13.1198 2.43038C15.8431 2.43038 18.3289 3.4492 20.2165 5.12556C18.8296 6.95505 16.7226 8.17325 14.6112 8.99768C13.416 6.82088 12.0764 4.72649 10.6016 2.72853C11.4264 2.5297 12.272 2.42962 13.1205 2.43038H13.1198ZM8.57206 3.44295C9.9659 5.52808 11.316 7.46133 12.5492 9.6496C9.43024 10.4578 5.90564 10.9428 2.6498 10.9509C3.3361 7.62072 5.57312 4.85554 8.57206 3.44357V3.44295ZM21.4023 6.36189C22.9469 8.24948 23.7966 10.6102 23.8093 13.0492C21.3366 12.5617 18.8777 12.4341 16.3738 12.6867C16.0925 11.9847 15.7513 11.3178 15.4244 10.599C17.5826 9.72835 19.8903 8.23826 21.4023 6.36126V6.36189ZM13.4174 11.3035C13.6849 11.8722 13.9949 12.476 14.2862 13.0929C10.8047 14.628 7.10134 16.6794 5.17934 20.2759C3.33423 18.2341 2.35091 15.5574 2.43541 12.8067C6.16378 12.7892 9.82339 12.3229 13.4174 11.3035ZM19.0665 14.218C20.6221 14.2183 22.1712 14.4179 23.6761 14.8118C23.4441 16.2595 22.9167 17.6441 22.1267 18.8792C21.3367 20.1144 20.301 21.1739 19.084 21.9916C18.5102 19.3821 17.9633 16.8851 16.9963 14.3674C17.6817 14.2675 18.3733 14.2174 19.0659 14.2174L19.0665 14.218ZM23.7318 14.4118C23.7243 14.473 23.7174 14.533 23.7086 14.593C23.7174 14.5324 23.7249 14.4724 23.7318 14.4118ZM15.0187 14.8556C16.0038 17.4013 16.777 20.2203 17.2957 22.9636C15.9752 23.5239 14.555 23.8118 13.1205 23.8099C10.744 23.8133 8.43471 23.0212 6.56068 21.5597C8.49643 18.4195 11.4947 16.0431 15.0181 14.8562L15.0187 14.8556Z" fill="white"/>
</svg>
