<svg width="21" height="20" viewBox="0 0 21 20" fill="none" xmlns="http://www.w3.org/2000/svg">
<path d="M9.24138 4.81668L6.19686 1.30239C5.84588 0.897412 5.20242 0.899212 4.79474 1.30779L2.29109 3.81594C1.54594 4.56199 1.33265 5.66983 1.76373 6.55807C4.33903 11.8902 8.63936 16.1966 13.9679 18.7793C14.8552 19.2104 15.9622 18.9971 16.7073 18.2511L19.2344 15.7195C19.6439 15.31 19.6448 14.663 19.2362 14.312L15.7084 11.2837C15.3394 10.9669 14.7661 11.0083 14.3963 11.3791L13.1687 12.6084C13.1059 12.6743 13.0232 12.7177 12.9333 12.732C12.8434 12.7463 12.7513 12.7307 12.6711 12.6876C10.6646 11.5322 9.00019 9.86558 7.84736 7.8576C7.80419 7.77728 7.78856 7.68501 7.80286 7.59495C7.81717 7.50489 7.86062 7.42201 7.92656 7.35902L9.15048 6.1342C9.52126 5.76162 9.56176 5.18566 9.24138 4.81578V4.81668Z" stroke="white" stroke-width="2" stroke-linecap="round" stroke-linejoin="round"/>
</svg>
