<svg width="23" height="24" viewBox="0 0 23 24" fill="none" xmlns="http://www.w3.org/2000/svg">
<path d="M20.8438 4.09375H2.15625C1.75869 4.09375 1.4375 4.41494 1.4375 4.8125V19.1875C1.4375 19.5851 1.75869 19.9062 2.15625 19.9062H20.8438C21.2413 19.9062 21.5625 19.5851 21.5625 19.1875V4.8125C21.5625 4.41494 21.2413 4.09375 20.8438 4.09375ZM19.9453 6.58242V18.2891H3.05469V6.58242L2.43477 6.09951L3.31748 4.96523L4.27881 5.71318H18.7234L19.6848 4.96523L20.5675 6.09951L19.9453 6.58242ZM18.7234 5.71094L11.5 11.3262L4.27656 5.71094L3.31523 4.96299L2.43252 6.09727L3.05244 6.58018L10.7251 12.5458C10.9458 12.7172 11.2172 12.8103 11.4966 12.8103C11.776 12.8103 12.0475 12.7172 12.2682 12.5458L19.9453 6.58242L20.5652 6.09951L19.6825 4.96523L18.7234 5.71094Z" fill="white"/>
</svg>
