
<svg
width="26"
height="16"
viewBox="0 0 26 16"
fill="none"
xmlns="http://www.w3.org/2000/svg"
>
<path
  fill-rule="evenodd"
  clip-rule="evenodd"
  d="M1.79997 0.199951C1.55244 0.199951 1.31504 0.291261 1.14001 0.453792C0.964971 0.616324 0.866638 0.836764 0.866638 1.06662C0.866638 1.29647 0.964971 1.51691 1.14001 1.67944C1.31504 1.84198 1.55244 1.93328 1.79997 1.93328H24.2C24.4475 1.93328 24.6849 1.84198 24.8599 1.67944C25.035 1.51691 25.1333 1.29647 25.1333 1.06662C25.1333 0.836764 25.035 0.616324 24.8599 0.453792C24.6849 0.291261 24.4475 0.199951 24.2 0.199951H1.79997ZM0.866638 7.99995C0.866638 7.7701 0.964971 7.54966 1.14001 7.38713C1.31504 7.22459 1.55244 7.13328 1.79997 7.13328H24.2C24.4475 7.13328 24.6849 7.22459 24.8599 7.38713C25.035 7.54966 25.1333 7.7701 25.1333 7.99995C25.1333 8.22981 25.035 8.45025 24.8599 8.61278C24.6849 8.77531 24.4475 8.86662 24.2 8.86662H1.79997C1.55244 8.86662 1.31504 8.77531 1.14001 8.61278C0.964971 8.45025 0.866638 8.22981 0.866638 7.99995ZM0.866638 14.9333C0.866638 14.7034 0.964971 14.483 1.14001 14.3205C1.31504 14.1579 1.55244 14.0666 1.79997 14.0666H24.2C24.4475 14.0666 24.6849 14.1579 24.8599 14.3205C25.035 14.483 25.1333 14.7034 25.1333 14.9333C25.1333 15.1631 25.035 15.3836 24.8599 15.5461C24.6849 15.7086 24.4475 15.8 24.2 15.8H1.79997C1.55244 15.8 1.31504 15.7086 1.14001 15.5461C0.964971 15.3836 0.866638 15.1631 0.866638 14.9333Z"
  fill="#E5E5E5"
/>
</svg>