<svg width="26" height="26"  viewBox="0 0 26 26" fill="none" xmlns="http://www.w3.org/2000/svg">
<path fill-rule="evenodd" clip-rule="evenodd" d="M7.84659 0.575C9.17955 0.513636 9.60455 0.5 13 0.5C16.3955 0.5 16.8205 0.514773 18.1523 0.575C19.4841 0.635227 20.3932 0.847727 21.1886 1.15568C22.0216 1.47045 22.7773 1.9625 23.4023 2.59886C24.0386 3.22273 24.5295 3.97727 24.8432 4.81136C25.1523 5.60682 25.3636 6.51591 25.425 7.84545C25.4864 9.18068 25.5 9.60568 25.5 13C25.5 16.3955 25.4852 16.8205 25.425 18.1534C25.3648 19.483 25.1523 20.392 24.8432 21.1875C24.5295 22.0217 24.0378 22.7775 23.4023 23.4023C22.7773 24.0386 22.0216 24.5295 21.1886 24.8432C20.3932 25.1523 19.4841 25.3636 18.1545 25.425C16.8205 25.4864 16.3955 25.5 13 25.5C9.60455 25.5 9.17955 25.4852 7.84659 25.425C6.51705 25.3648 5.60795 25.1523 4.8125 24.8432C3.97832 24.5295 3.22252 24.0378 2.59773 23.4023C1.9618 22.778 1.46968 22.0226 1.15568 21.1886C0.847727 20.3932 0.636364 19.4841 0.575 18.1545C0.513636 16.8193 0.5 16.3943 0.5 13C0.5 9.60455 0.514773 9.17955 0.575 7.84773C0.635227 6.51591 0.847727 5.60682 1.15568 4.81136C1.47014 3.97737 1.96263 3.22195 2.59886 2.59773C3.22277 1.96193 3.97781 1.46982 4.81136 1.15568C5.60682 0.847727 6.51705 0.636364 7.84659 0.575ZM18.0511 2.825C16.733 2.76477 16.3375 2.75227 13 2.75227C9.6625 2.75227 9.26705 2.76477 7.94886 2.825C6.72955 2.88068 6.06818 3.08409 5.62727 3.25568C5.04432 3.48295 4.62727 3.75227 4.18977 4.18977C3.77505 4.59324 3.45589 5.08441 3.25568 5.62727C3.08409 6.06818 2.88068 6.72955 2.825 7.94886C2.76477 9.26705 2.75227 9.6625 2.75227 13C2.75227 16.3375 2.76477 16.733 2.825 18.0511C2.88068 19.2705 3.08409 19.9318 3.25568 20.3727C3.45568 20.9148 3.775 21.4068 4.18977 21.8102C4.59318 22.225 5.08523 22.5443 5.62727 22.7443C6.06818 22.9159 6.72955 23.1193 7.94886 23.175C9.26705 23.2352 9.66136 23.2477 13 23.2477C16.3386 23.2477 16.733 23.2352 18.0511 23.175C19.2705 23.1193 19.9318 22.9159 20.3727 22.7443C20.9557 22.517 21.3727 22.2477 21.8102 21.8102C22.225 21.4068 22.5443 20.9148 22.7443 20.3727C22.9159 19.9318 23.1193 19.2705 23.175 18.0511C23.2352 16.733 23.2477 16.3375 23.2477 13C23.2477 9.6625 23.2352 9.26705 23.175 7.94886C23.1193 6.72955 22.9159 6.06818 22.7443 5.62727C22.517 5.04432 22.2477 4.62727 21.8102 4.18977C21.4067 3.77508 20.9156 3.45592 20.3727 3.25568C19.9318 3.08409 19.2705 2.88068 18.0511 2.825ZM11.4034 16.8534C12.2951 17.2246 13.2879 17.2747 14.2124 16.9951C15.1369 16.7156 15.9357 16.1238 16.4723 15.3207C17.0089 14.5177 17.2501 13.5533 17.1546 12.5922C17.0591 11.6311 16.633 10.7329 15.9489 10.0511C15.5128 9.61531 14.9855 9.2816 14.4049 9.07403C13.8244 8.86646 13.205 8.79018 12.5915 8.8507C11.9779 8.91122 11.3854 9.10702 10.8566 9.42401C10.3278 9.741 9.87584 10.1713 9.5333 10.6839C9.19075 11.1965 8.96612 11.7787 8.87559 12.3886C8.78505 12.9984 8.83085 13.6208 9.0097 14.2108C9.18855 14.8008 9.496 15.3439 9.90991 15.8008C10.3238 16.2578 10.8339 16.6173 11.4034 16.8534ZM8.45682 8.45682C9.05344 7.8602 9.76173 7.38694 10.5412 7.06405C11.3208 6.74116 12.1563 6.57497 13 6.57497C13.8437 6.57497 14.6792 6.74116 15.4588 7.06405C16.2383 7.38693 16.9466 7.8602 17.5432 8.45682C18.1398 9.05344 18.6131 9.76173 18.936 10.5412C19.2588 11.3208 19.425 12.1563 19.425 13C19.425 13.8437 19.2588 14.6792 18.936 15.4588C18.6131 16.2383 18.1398 16.9466 17.5432 17.5432C16.3383 18.7481 14.704 19.425 13 19.425C11.296 19.425 9.66175 18.7481 8.45682 17.5432C7.25189 16.3383 6.57497 14.704 6.57497 13C6.57497 11.296 7.25189 9.66175 8.45682 8.45682ZM20.85 7.53182C20.9978 7.39235 21.1162 7.22464 21.1981 7.03861C21.2799 6.85258 21.3236 6.65201 21.3266 6.44878C21.3296 6.24556 21.2917 6.0438 21.2153 5.85547C21.1389 5.66713 21.0255 5.49603 20.8818 5.35232C20.7381 5.2086 20.567 5.09518 20.3786 5.01877C20.1903 4.94236 19.9885 4.90452 19.7853 4.90748C19.5821 4.91044 19.3815 4.95415 19.1955 5.03602C19.0095 5.11789 18.8417 5.23624 18.7023 5.38409C18.431 5.67162 18.2825 6.05355 18.2883 6.44878C18.2941 6.84402 18.4536 7.22145 18.7331 7.50096C19.0126 7.78046 19.3901 7.94003 19.7853 7.94579C20.1805 7.95156 20.5625 7.80306 20.85 7.53182Z" fill="white"/>
</svg>
