<svg width="174" height="174" viewBox="0 0 174 174" fill="none" xmlns="http://www.w3.org/2000/svg">
<path d="M121.437 14.5H48.9375C40.9407 14.5 34.4375 21.0032 34.4375 29V145C34.4375 152.997 40.9407 159.5 48.9375 159.5H121.437C129.434 159.5 135.937 152.997 135.937 145V29C135.937 21.0032 129.434 14.5 121.437 14.5ZM48.9375 145V29H121.437L121.452 145H48.9375Z" fill="white"/>
<path d="M85.1875 137.75C89.1916 137.75 92.4375 134.504 92.4375 130.5C92.4375 126.496 89.1916 123.25 85.1875 123.25C81.1834 123.25 77.9375 126.496 77.9375 130.5C77.9375 134.504 81.1834 137.75 85.1875 137.75Z" fill="white"/>
</svg>
