<svg width="155" height="156" viewBox="0 0 155 156" fill="none" xmlns="http://www.w3.org/2000/svg">
<path d="M129.167 149.042H25.8334C22.4077 149.042 19.1223 147.681 16.7 145.258C14.2776 142.836 12.9167 139.551 12.9167 136.125V19.875C12.9167 16.4493 14.2776 13.1639 16.7 10.7416C19.1223 8.31923 22.4077 6.95837 25.8334 6.95837H129.167C132.592 6.95837 135.878 8.31923 138.3 10.7416C140.723 13.1639 142.083 16.4493 142.083 19.875V136.125C142.083 139.551 140.723 142.836 138.3 145.258C135.878 147.681 132.592 149.042 129.167 149.042ZM25.8334 19.875V136.125H129.167V19.875H25.8334ZM77.5001 129.667C75.7872 129.667 74.1445 128.986 72.9334 127.775C71.7222 126.564 71.0418 124.921 71.0418 123.208C71.0418 121.496 71.7222 119.853 72.9334 118.642C74.1445 117.43 75.7872 116.75 77.5001 116.75C79.2129 116.75 80.8557 117.43 82.0668 118.642C83.278 119.853 83.9584 121.496 83.9584 123.208C83.9584 124.921 83.278 126.564 82.0668 127.775C80.8557 128.986 79.2129 129.667 77.5001 129.667Z" fill="white"/>
</svg>
