<svg width="15" height="16" viewBox="0 0 15 16" fill="none" xmlns="http://www.w3.org/2000/svg">
<path d="M14.5152 5.32117L10.0185 4.63682L8.00833 0.369372C7.95343 0.252532 7.8631 0.157947 7.75153 0.100454C7.4717 -0.0442048 7.13166 0.0763446 6.99174 0.369372L4.9816 4.63682L0.484887 5.32117C0.360913 5.33972 0.247566 5.40092 0.160784 5.49365C0.0558699 5.60657 -0.00194268 5.75849 4.9848e-05 5.91602C0.00204238 6.07356 0.063677 6.22382 0.17141 6.33379L3.42484 9.65539L2.6562 14.3457C2.63818 14.4548 2.64971 14.567 2.68948 14.6696C2.72926 14.7722 2.79569 14.8611 2.88125 14.9261C2.9668 14.9912 3.06805 15.0299 3.17353 15.0377C3.279 15.0456 3.38446 15.0224 3.47797 14.9707L7.50004 12.7563L11.5221 14.9707C11.6319 15.0319 11.7594 15.0523 11.8816 15.03C12.1898 14.9744 12.397 14.6684 12.3439 14.3457L11.5752 9.65539L14.8287 6.33379C14.9172 6.24291 14.9757 6.12422 14.9934 5.99439C15.0412 5.66984 14.8251 5.36939 14.5152 5.32117V5.32117Z" fill="#FFD233"/>
</svg>
