<svg width="21" height="23" viewBox="0 0 21 23" fill="none" xmlns="http://www.w3.org/2000/svg">
<path d="M10.4722 22.5942C10.1857 22.5942 9.89498 22.5157 9.64269 22.3672L7.00439 20.7738C6.611 20.5468 6.80342 20.4682 6.9317 20.4246C7.45765 20.2369 7.56455 20.1976 8.12471 19.8702C8.18457 19.8352 8.26154 19.8483 8.3214 19.8876L10.3482 21.1143C10.4209 21.158 10.5236 21.158 10.592 21.1143L18.4898 16.4607C18.5625 16.417 18.6095 16.3297 18.6095 16.2424V6.93514C18.6095 6.84347 18.5625 6.76052 18.4855 6.7125L10.592 2.06323C10.5193 2.01958 10.4209 2.01958 10.3482 2.06323L2.45898 6.71687C2.38201 6.76052 2.33498 6.84783 2.33498 6.93951V16.2424C2.33498 16.3297 2.38201 16.417 2.45898 16.4563L4.62265 17.7311C5.79855 18.3291 6.51692 17.6263 6.51692 16.9147V7.72967C6.51692 7.5987 6.61955 7.4983 6.74783 7.4983H7.74842C7.87242 7.4983 7.97932 7.5987 7.97932 7.72967V16.9191C7.97932 18.5168 7.12412 19.4336 5.64034 19.4336C5.18281 19.4336 4.82362 19.4336 3.82303 18.9272L1.75344 17.7092C1.24031 17.408 0.923889 16.8449 0.923889 16.2381V6.93514C0.923889 6.3327 1.24031 5.76519 1.75344 5.46397L9.64269 0.810331C10.143 0.522207 10.8058 0.522207 11.3018 0.810331L19.1996 5.46833C19.7127 5.76955 20.0291 6.3327 20.0291 6.93951V16.2424C20.0291 16.8449 19.7127 17.408 19.1996 17.7136L11.3018 22.3672C11.0495 22.5157 10.763 22.5942 10.4722 22.5942ZM16.8478 13.4223C16.8478 11.6805 15.6933 11.2177 13.2688 10.8903C10.8143 10.5585 10.5663 10.3883 10.5663 9.80329C10.5663 9.31871 10.7758 8.67262 12.5931 8.67262C14.2138 8.67262 14.8124 9.03059 15.0604 10.1482C15.0818 10.2529 15.1759 10.3315 15.2828 10.3315H16.309C16.3731 10.3315 16.433 10.3053 16.4758 10.2573C16.5185 10.2093 16.5399 10.1438 16.5356 10.0783C16.3774 8.15312 15.1246 7.25819 12.5931 7.25819C10.3397 7.25819 8.99702 8.22734 8.99702 9.85567C8.99702 11.6193 10.3354 12.1083 12.4948 12.3266C15.0818 12.5841 15.2828 12.9726 15.2828 13.4921C15.2828 14.3914 14.5729 14.7756 12.9096 14.7756C10.8186 14.7756 10.3611 14.2386 10.2071 13.1778C10.19 13.0643 10.096 12.9814 9.9805 12.9814H8.95853C8.83025 12.9814 8.7319 13.0862 8.7319 13.2128C8.7319 14.5704 9.45455 16.19 12.9138 16.19C15.411 16.1857 16.8478 15.1772 16.8478 13.4223Z" fill="black"/>
</svg>
