<svg width="24" height="12" viewBox="0 0 24 12" fill="none" xmlns="http://www.w3.org/2000/svg">
<path d="M7.11947 4.05579H6.19859L5.69689 6.32769H6.5148C7.05447 6.32769 7.45759 6.23762 7.72414 6.05682C7.98631 5.87923 8.16523 5.57747 8.25651 5.15861C8.34706 4.75647 8.30544 4.47144 8.13894 4.30415C7.96732 4.14008 7.62847 4.05643 7.11947 4.05643V4.05579ZM11.9765 0.179199C5.52162 0.179199 0.292114 2.60553 0.292114 5.5942C0.292114 8.58287 5.52162 11.0092 11.9765 11.0092C18.4315 11.0092 23.661 8.58287 23.661 5.5942C23.661 2.60553 18.4315 0.179199 11.9765 0.179199ZM8.80057 6.57284C8.54776 6.78691 8.24351 6.94811 7.91036 7.04446C7.5832 7.13518 7.16548 7.18537 6.6594 7.18537H5.50629L5.19081 8.62662H3.84783L5.04621 3.20133H7.62482C8.40111 3.20133 8.9678 3.37891 9.3249 3.7373C9.67909 4.09568 9.78936 4.59883 9.64404 5.24225C9.58965 5.49705 9.48983 5.74266 9.34827 5.96995C9.20261 6.19509 9.01752 6.39856 8.79984 6.57284H8.80057ZM12.7222 7.18537L13.2509 4.78349C13.3115 4.51133 13.2888 4.32474 13.1815 4.22308C13.0793 4.12592 12.8543 4.07573 12.5126 4.07573H11.4515L10.7672 7.18537H9.43226L10.6299 1.75686H11.9612L11.6421 3.20133H12.8288C13.5788 3.20133 14.0914 3.31521 14.3733 3.54298C14.6588 3.77461 14.7421 4.14587 14.6326 4.65931L14.0724 7.18601L12.7222 7.18537ZM20.1155 5.24225C20.0628 5.49744 19.9628 5.74328 19.8197 5.96995C19.6754 6.19484 19.4918 6.39829 19.2757 6.57284C19.0206 6.78589 18.7154 6.9469 18.3818 7.04446C18.0546 7.13518 17.6362 7.18537 17.1308 7.18537H15.9821L15.663 8.62662H14.32L15.5184 3.20133H18.097C18.8733 3.20133 19.44 3.37891 19.7971 3.74116C20.1513 4.09632 20.2615 4.59883 20.1162 5.24225H20.1155ZM17.5909 4.05579H16.6737L16.172 6.32769H16.9862C17.5296 6.32769 17.9327 6.23762 18.1956 6.05682C18.4614 5.87923 18.6403 5.57747 18.7323 5.15861C18.8229 4.75647 18.7813 4.47144 18.6096 4.30415C18.4431 4.14008 18.1006 4.05643 17.5909 4.05643V4.05579Z" fill="black"/>
</svg>
