<svg width="16" height="21" viewBox="0 0 16 21" fill="none" xmlns="http://www.w3.org/2000/svg">
<path d="M2.70984 0.594116H3.61151V1.48495H4.43651V0.594116H5.33817V3.29078H4.43651V2.38828H3.61151V3.29078H2.71067V0.594116H2.70984Z" fill="black"/>
<path d="M6.52313 1.48828H5.7298V0.594116H8.21896V1.48828H7.4248V3.29078H6.52313V1.48828Z" fill="black"/>
<path d="M8.61389 0.594116H9.55389L10.1322 1.54162L10.7097 0.594116H11.6497V3.29078H10.7522V1.95412L10.1322 2.91328H10.1164L9.49556 1.95495V3.29078H8.61389V0.594116V0.594116Z" fill="black"/>
<path d="M12.0981 0.594116H13.0006V2.39995H14.2673V3.29162H12.0981V0.594116V0.594116Z" fill="black"/>
<path fill-rule="evenodd" clip-rule="evenodd" d="M2.6815 18.9875L0.976501 4.52502H15.9765L14.2707 18.9859L8.46817 20.5942L2.6815 18.9875ZM6.129 11.0709L5.96733 9.25419H12.7548L12.9132 7.48086H4.02983L4.50817 12.845H10.6557L10.4498 15.145L8.4715 15.68H8.46983L6.49483 15.1467L6.36817 13.7325H4.5865L4.83483 16.5175L8.46817 17.5259L12.1073 16.5175L12.5507 11.5475L12.594 11.0717H6.129V11.0709Z" fill="black"/>
</svg>
