<svg width="23" height="23" viewBox="0 0 23 23" fill="none" xmlns="http://www.w3.org/2000/svg">
<path d="M14.9546 22.575L22.4766 21.1441C22.4766 21.1441 19.7621 4.99882 19.7402 4.89157C19.7215 4.78524 19.6214 4.71557 19.5203 4.71557C19.4192 4.71557 17.5095 4.59091 17.5095 4.59091C17.5095 4.59091 16.1804 3.42307 16.0095 3.29749C15.9726 3.26819 15.9298 3.24518 15.8833 3.22966L14.9306 22.575H14.9546V22.575ZM11.1737 10.9572C11.1737 10.9572 10.3294 10.5685 9.32451 10.5685C7.81615 10.5685 7.75673 11.399 7.75673 11.6144C7.75673 12.7437 11.1341 13.1865 11.1341 15.8577C11.1341 17.9614 9.63307 19.3043 7.58369 19.3043C5.12987 19.3043 3.89357 17.9614 3.89357 17.9614L4.56697 16.0492C4.56697 16.0492 5.86476 17.0264 6.94366 17.0264C7.07453 17.0302 7.20494 17.011 7.32726 16.9699C7.44958 16.9288 7.56134 16.8666 7.656 16.7871C7.75065 16.7075 7.8263 16.6121 7.8785 16.5065C7.9307 16.4009 7.95841 16.2872 7.96 16.1721C7.96 14.688 5.19345 14.6192 5.19345 12.1763C5.15801 10.1257 6.83108 8.12832 10.2252 8.12832C11.5355 8.12832 12.1797 8.45924 12.1797 8.45924L11.1946 10.948L11.1737 10.9572V10.9572ZM10.6108 1.35507C10.7526 1.35507 10.8933 1.3899 11.033 1.47882C10.0073 1.90507 8.88149 2.98124 8.41866 5.13815C7.76549 5.32383 7.10904 5.50046 6.44955 5.66799C6.99056 4.03174 8.29774 1.36424 10.6108 1.36424V1.35507ZM11.8982 4.05832V4.18207C11.1122 4.39474 10.2481 4.62574 9.40269 4.85674C9.88846 3.22782 10.7922 2.43216 11.5761 2.13332C11.7773 2.59257 11.8982 3.21132 11.8982 4.05832V4.05832ZM12.4601 2.01049C13.1835 2.07832 13.6495 2.80524 13.9497 3.61924C13.5859 3.72374 13.1835 3.83099 12.7426 3.95474V3.72374C12.7426 3.03441 12.6425 2.46699 12.4601 2.00865V2.01049V2.01049ZM15.579 3.19207C15.5581 3.19207 15.5164 3.21132 15.4976 3.21132C15.4789 3.21132 15.1964 3.28007 14.7534 3.40382C14.3124 2.27357 13.5275 1.23132 12.139 1.23132H12.0191C11.6168 0.785822 11.131 0.594238 10.7099 0.594238C7.47216 0.594238 5.92522 4.14816 5.4405 5.95307C4.19587 6.28766 3.29002 6.53607 3.18891 6.57091C2.48528 6.76616 2.46548 6.78357 2.38417 7.3684C2.30599 7.7919 0.476562 20.2595 0.476562 20.2595L14.6126 22.5942L15.579 3.19207Z" fill="black"/>
</svg>
