<svg width="25" height="23" viewBox="0 0 25 23" fill="none" xmlns="http://www.w3.org/2000/svg">
<path d="M24.4765 11.5966C24.4765 10.0066 22.4855 8.49959 19.4325 7.56559C20.1375 4.45459 19.8245 1.97859 18.4445 1.18559C18.1101 0.998313 17.7317 0.904045 17.3485 0.912593V2.00259C17.5735 2.00259 17.7545 2.04759 17.9065 2.13059C18.5715 2.51259 18.8605 3.96459 18.6355 5.83359C18.5815 6.29359 18.4935 6.77759 18.3855 7.27159C17.3631 7.02523 16.3255 6.84717 15.2795 6.73859C14.6564 5.87888 13.9765 5.06173 13.2445 4.29259C14.8395 2.81059 16.3365 1.99859 17.3545 1.99859V0.907593C16.0085 0.907593 14.2475 1.86659 12.4665 3.52959C10.6865 1.87759 8.9245 0.927593 7.5795 0.927593V2.01759C8.5925 2.01759 10.0945 2.82559 11.6895 4.29759C11.0045 5.01759 10.3195 5.83359 9.6685 6.73859C8.62034 6.84597 7.58085 7.02573 6.5575 7.27659C6.4445 6.78759 6.3615 6.31359 6.3025 5.85859C6.0725 3.98859 6.3565 2.53659 7.0175 2.15059C7.1635 2.06259 7.3545 2.02259 7.5795 2.02259V0.932593C7.1695 0.932593 6.7965 1.02059 6.4745 1.20559C5.0995 1.99859 4.7915 4.46859 5.5005 7.57059C2.4575 8.51059 0.476501 10.0116 0.476501 11.5966C0.476501 13.1866 2.4675 14.6936 5.5205 15.6266C4.8155 18.7386 5.1285 21.2146 6.5085 22.0066C6.8265 22.1926 7.1985 22.2806 7.6085 22.2806C8.9545 22.2806 10.7155 21.3216 12.4965 19.6586C14.2765 21.3116 16.0375 22.2606 17.3835 22.2606C17.7696 22.2687 18.1509 22.1742 18.4885 21.9866C19.8635 21.1946 20.1715 18.7246 19.4625 15.6226C22.4955 14.6886 24.4765 13.1816 24.4765 11.5966ZM18.1065 8.33359C17.9165 8.98745 17.6962 9.63214 17.4465 10.2656C17.0377 9.47035 16.5888 8.69636 16.1015 7.94659C16.7965 8.04959 17.4665 8.17659 18.1075 8.33359H18.1065ZM15.8665 13.5436C15.4855 14.2036 15.0935 14.8306 14.6875 15.4126C13.2198 15.542 11.7435 15.5436 10.2755 15.4176C9.43345 14.2148 8.69704 12.9414 8.0745 11.6116C8.69608 10.2787 9.42937 9.0008 10.2665 7.79159C11.7339 7.66196 13.2098 7.65995 14.6775 7.78559C15.0835 8.36759 15.4805 8.98959 15.8615 9.64559C16.2335 10.2856 16.5715 10.9356 16.8795 11.5916C16.5681 12.2555 16.2301 12.9067 15.8665 13.5436ZM17.4465 12.9076C17.7105 13.5626 17.9365 14.2186 18.1215 14.8546C17.4815 15.0116 16.8055 15.1436 16.1065 15.2456C16.5917 14.489 17.039 13.7087 17.4465 12.9076ZM12.4865 18.1276C12.0315 17.6576 11.5765 17.1346 11.1265 16.5616C11.5665 16.5816 12.0165 16.5966 12.4715 16.5966C12.9315 16.5966 13.3865 16.5866 13.8315 16.5616C13.3915 17.1346 12.9365 17.6576 12.4865 18.1276ZM8.8465 15.2456C8.17225 15.1479 7.50286 15.0191 6.8405 14.8596C7.0215 14.2286 7.2465 13.5776 7.5005 12.9276C7.7015 13.3176 7.9125 13.7096 8.1425 14.1016C8.3725 14.4926 8.6065 14.8746 8.8465 15.2456ZM12.4615 5.06559C12.9165 5.53559 13.3715 6.05859 13.8215 6.63159C13.3815 6.61159 12.9315 6.59659 12.4765 6.59659C12.0165 6.59659 11.5615 6.60659 11.1165 6.63159C11.5565 6.05859 12.0115 5.53559 12.4615 5.06559ZM8.8415 7.94759C8.35637 8.70253 7.90915 9.48116 7.5015 10.2806C7.24472 9.64305 7.01944 8.99327 6.8265 8.33359C7.4665 8.18159 8.1425 8.04959 8.8415 7.94759ZM4.4145 14.0716C2.6825 13.3336 1.5625 12.3646 1.5625 11.5966C1.5625 10.8286 2.6825 9.85459 4.4145 9.12159C4.8345 8.94059 5.2945 8.77859 5.7695 8.62759C6.0485 9.58559 6.4155 10.5836 6.8695 11.6066C6.44087 12.5688 6.07836 13.5591 5.7845 14.5706C5.31995 14.4268 4.86274 14.2602 4.4145 14.0716ZM7.0465 21.0616C6.3815 20.6816 6.0925 19.2276 6.3175 17.3596C6.3715 16.8996 6.4595 16.4146 6.5675 15.9206C7.5255 16.1556 8.5725 16.3366 9.6735 16.4546C10.2967 17.3143 10.9765 18.1314 11.7085 18.9006C10.1135 20.3826 8.6165 21.1946 7.5985 21.1946C7.40644 21.1967 7.21684 21.1513 7.0465 21.0626V21.0616ZM18.6505 17.3346C18.8805 19.2036 18.5965 20.6566 17.9355 21.0426C17.7895 21.1306 17.5985 21.1696 17.3735 21.1696C16.3605 21.1696 14.8585 20.3626 13.2635 18.8896C13.9485 18.1716 14.6335 17.3546 15.2845 16.4496C16.3327 16.3422 17.3722 16.1625 18.3955 15.9116C18.5085 16.4056 18.5955 16.8796 18.6505 17.3346ZM20.5335 14.0716C20.1135 14.2526 19.6535 14.4146 19.1785 14.5656C18.8795 13.5489 18.512 12.5536 18.0785 11.5866C18.5285 10.5696 18.8895 9.57659 19.1635 8.62259C19.6485 8.77359 20.1075 8.94059 20.5385 9.12159C22.2705 9.85959 23.3905 10.8286 23.3905 11.5966C23.3855 12.3646 22.2655 13.3386 20.5335 14.0716Z" fill="black"/>
<path d="M12.4715 13.8326C13.0645 13.8326 13.6332 13.597 14.0526 13.1777C14.4719 12.7584 14.7075 12.1896 14.7075 11.5966C14.7075 11.0036 14.4719 10.4348 14.0526 10.0155C13.6332 9.59617 13.0645 9.3606 12.4715 9.3606C11.8784 9.3606 11.3097 9.59617 10.8904 10.0155C10.4711 10.4348 10.2355 11.0036 10.2355 11.5966C10.2355 12.1896 10.4711 12.7584 10.8904 13.1777C11.3097 13.597 11.8784 13.8326 12.4715 13.8326Z" fill="black"/>
</svg>
