<svg xmlns="http://www.w3.org/2000/svg" width="206" height="130" viewBox="0 0 206 130" fill="none">
<path d="M89.4841 44.4244C88.9222 44.4268 88.4676 45.3806 88.4687 46.5549C88.4698 47.7259 88.9238 48.6746 89.4841 48.6769H194.167C194.729 48.6746 195.184 47.7207 195.183 46.5465C195.182 45.3755 194.728 44.4267 194.167 44.4244H89.4841Z" fill="#A9AABC"/>
<path d="M89.4841 57.1833C88.9222 57.1857 88.4676 58.1395 88.4687 59.3138C88.4698 60.4848 88.9238 61.4335 89.4841 61.4358H166.839C167.401 61.4335 167.856 60.4796 167.855 59.3054C167.854 58.1344 167.4 57.1857 166.839 57.1833H89.4841Z" fill="#A9AABC"/>
<path d="M89.4841 69.6536C88.9222 69.6559 88.4676 70.6097 88.4687 71.784C88.4698 72.955 88.9238 73.9037 89.4841 73.906H194.167C194.729 73.9037 195.184 72.9499 195.183 71.7756C195.182 70.6046 194.728 69.6559 194.167 69.6536H89.4841Z" fill="#A9AABC"/>
<path d="M89.4841 82.412C88.9222 82.4143 88.4676 83.3681 88.4687 84.5424C88.4698 85.7134 88.9238 86.6621 89.4841 86.6644H166.839C167.401 86.6621 167.856 85.7083 167.855 84.534C167.854 83.363 167.4 82.4143 166.839 82.412H89.4841Z" fill="#A9AABC"/>
<path d="M12.9008 84.4943C12.3389 84.4966 11.8842 85.4504 11.8853 86.6247C11.8864 87.7957 12.3404 88.7444 12.9008 88.7467H64.5737C65.1356 88.7444 65.5902 87.7905 65.5891 86.6163C65.588 85.4453 65.134 84.4966 64.5737 84.4943H12.9008Z" fill="#A9AABC"/>
<path d="M12.9008 96.09C12.3389 96.0923 11.8842 97.0461 11.8853 98.2203C11.8864 99.3913 12.3404 100.34 12.9008 100.342H37.2455C37.8075 100.34 38.2621 99.3861 38.261 98.2119C38.2599 97.0409 37.8059 96.0923 37.2455 96.09H12.9008Z" fill="#A9AABC"/>
<path d="M53.3544 37.5648C52.2145 33.9705 50.3741 30.6924 47.9614 27.9591C45.5487 25.2258 42.6219 23.103 39.385 21.7388C36.148 20.3746 32.679 19.8019 29.2197 20.0605C25.7604 20.3191 22.3941 21.4029 19.3557 23.2362C16.3172 25.0695 13.6796 27.6083 11.6268 30.6755C9.57411 33.7426 8.15561 37.2644 7.4703 40.9951C6.78498 44.7258 6.84933 48.5758 7.65886 52.2764C8.46839 55.977 10.0036 59.4393 12.1575 62.4217C12.3714 62.7176 12.5939 63.0136 12.8207 63.3001C12.8378 63.3189 12.8506 63.3377 12.8677 63.3565C13.4256 64.0619 14.0185 64.733 14.6438 65.3668C14.8063 65.5312 14.9775 65.7003 15.1486 65.86C15.4739 66.1794 15.8076 66.4847 16.1543 66.7759C16.8311 67.3615 17.5368 67.9056 18.2682 68.4058L18.2939 68.4199C18.7689 68.744 19.2524 69.0446 19.7447 69.3311L19.9457 69.4439C20.4079 69.7069 20.8786 69.9558 21.3622 70.186C21.4606 70.233 21.5676 70.2799 21.666 70.3269C21.6745 70.3316 21.6789 70.3316 21.6875 70.3363C22.6645 70.7823 23.6682 71.1542 24.6916 71.4495C26.6976 72.0364 28.7648 72.3332 30.8408 72.3326C31.5982 72.3326 32.3471 72.295 33.0874 72.2151C34.779 72.0438 36.4489 71.6737 38.0686 71.1113C38.073 71.1113 38.0772 71.1066 38.0813 71.1066C39.1045 70.7489 40.104 70.3142 41.0727 69.8055C41.0769 69.8008 41.0856 69.8008 41.0898 69.7961C41.3079 69.6834 41.5177 69.5613 41.7317 69.4439L41.8345 69.3875C42.0056 69.2889 42.1768 69.1902 42.3479 69.0869C42.7758 68.8285 43.1952 68.5561 43.6104 68.2649C43.7259 68.1897 43.8371 68.1099 43.9526 68.0253C44.3292 67.7529 44.7015 67.4617 45.0609 67.1658C45.1253 67.1141 45.1936 67.0624 45.2579 67.0061C49.267 63.6658 52.2096 59.0182 53.664 53.7293C55.1185 48.4404 55.0101 42.7819 53.3544 37.5648Z" fill="#F2F2F2"/>
<path d="M38.981 57.2144C41.229 57.2144 43.0513 55.392 43.0513 53.144C43.0513 50.8961 41.229 49.0737 38.981 49.0737C36.733 49.0737 34.9107 50.8961 34.9107 53.144C34.9107 55.392 36.733 57.2144 38.981 57.2144Z" fill="black"/>
<path d="M40.1345 49.6079C40.777 49.6079 41.4085 49.7688 41.9672 50.0748C42.5259 50.3807 42.9928 50.8213 43.3221 51.3535C43.6514 51.8856 43.8319 52.4911 43.846 53.1107C43.8601 53.7304 43.7072 54.3429 43.4024 54.8885C43.7241 54.5 43.9585 54.0512 44.0905 53.5706C44.2225 53.09 44.2493 52.5881 44.1691 52.097C44.089 51.6058 43.9036 51.1361 43.6249 50.7179C43.3462 50.2997 42.9802 49.942 42.5503 49.6677C42.1204 49.3934 41.636 49.2085 41.128 49.1248C40.6199 49.0411 40.0994 49.0604 39.5995 49.1815C39.0996 49.3026 38.6313 49.5228 38.2245 49.828C37.8176 50.1333 37.4812 50.517 37.2366 50.9547C37.5836 50.5344 38.0244 50.195 38.5263 49.9618C39.0281 49.7287 39.578 49.6077 40.135 49.6079H40.1345Z" fill="black"/>
<path d="M32.5848 52.5624C38.3653 52.5624 43.0513 47.616 43.0513 41.5144C43.0513 35.4128 38.3653 30.4664 32.5848 30.4664C26.8043 30.4664 22.1183 35.4128 22.1183 41.5144C22.1183 47.616 26.8043 52.5624 32.5848 52.5624Z" fill="black"/>
<path d="M24.1115 34.7422C25.8879 32.5799 28.3711 31.2492 31.0369 31.0309C33.7028 30.8126 36.3427 31.7238 38.3995 33.5721C38.3155 33.4852 38.2314 33.3978 38.1444 33.3137C36.1078 31.3391 33.4298 30.3209 30.6996 30.4832C27.9694 30.6456 25.4106 31.9751 23.5861 34.1793C21.7616 36.3835 20.8209 39.2818 20.9709 42.2367C21.1209 45.1915 22.3493 47.9609 24.3859 49.9355C24.4055 49.9545 24.4251 49.9734 24.4448 49.9922C24.5322 50.0764 24.6222 50.156 24.7117 50.2365C22.7748 48.2422 21.6295 45.5115 21.5176 42.6206C21.4057 39.7297 22.3359 36.9049 24.1119 34.7422H24.1115Z" fill="black"/>
<path d="M32.0033 52.5624C35.5359 52.5624 38.3995 49.4384 38.3995 45.5847C38.3995 41.7311 35.5359 38.6071 32.0033 38.6071C28.4708 38.6071 25.6071 41.7311 25.6071 45.5847C25.6071 49.4384 28.4708 52.5624 32.0033 52.5624Z" fill="#DFA8A8"/>
<path d="M44.2143 64.7901V67.2122C43.7902 67.4955 43.3619 67.7605 42.9248 68.0119C42.75 68.1124 42.5752 68.2084 42.4005 68.3044L42.2955 68.3592C42.0769 68.4734 41.8626 68.5923 41.6398 68.7019C41.6356 68.7065 41.6266 68.7065 41.6224 68.7111C40.633 69.2059 39.6121 69.6289 38.5671 69.9769C38.5628 69.9769 38.5586 69.9815 38.5541 69.9815C36.8998 70.5286 35.1942 70.8887 33.4665 71.0554C32.7103 71.1331 31.9455 71.1697 31.1718 71.1697C29.0515 71.1703 26.9401 70.8815 24.8912 70.3105C23.846 70.0232 22.8209 69.6613 21.823 69.2275C21.8143 69.2229 21.8098 69.2229 21.801 69.2183C21.7005 69.1726 21.5912 69.1269 21.4907 69.0812C20.9968 68.8573 20.516 68.6151 20.044 68.3592L19.8386 68.2495C19.3358 67.9708 18.842 67.6783 18.3569 67.363L18.3307 67.3493C17.5836 66.8626 16.8628 66.3332 16.1715 65.7635C15.8175 65.4802 15.4767 65.1831 15.1444 64.8724C14.9696 64.717 14.7948 64.5525 14.6288 64.3926C13.9902 63.7759 13.3846 63.123 12.8147 62.4367C12.8903 61.9607 13.0014 61.4916 13.147 61.0337L13.1513 61.0291C13.1774 60.9511 13.2081 60.8748 13.2431 60.8007C13.2672 60.7351 13.2949 60.671 13.3261 60.6087C14.1084 59.0778 15.5247 58.6985 17.2817 58.6163C18.2739 58.5706 19.3709 58.6208 20.5293 58.6071C21.1411 58.6026 21.7748 58.5797 22.4086 58.5203C26.4078 58.141 25.6824 55.6733 25.8614 54.3435C26.0407 53.0548 27.1509 54.1698 27.2252 54.2429L27.2294 54.2475C29.4926 55.3549 31.9965 55.8138 34.4849 55.5773C34.9132 55.5225 35.3416 55.4905 35.7699 55.4768C36.8976 55.4631 36.6528 55.8012 36.2639 56.08C36.0752 56.2099 35.878 56.3259 35.6738 56.4273C35.6738 56.4273 35.4946 57.5698 35.311 59.2789C35.1363 60.9149 38.1345 61.6826 38.3836 61.742C38.3887 61.7456 38.3949 61.7472 38.4011 61.7466C39.496 61.4497 40.6488 61.4814 41.7274 61.838H41.7316C42.3479 62.0749 42.8977 62.4691 43.3313 62.9846C43.7649 63.5002 44.0684 64.1208 44.2143 64.7901Z" fill="#6C8BF5"/>
<path d="M22.1127 67.3149C22.1127 67.6598 22.1043 67.9907 22.0912 68.303C22.0871 68.4895 22.0784 68.6712 22.0698 68.8437C22.0612 68.839 22.0568 68.839 22.0482 68.8344C21.9494 68.7878 21.8419 68.7411 21.7431 68.6945C21.2574 68.4662 20.7846 68.2191 20.3203 67.9581L20.1184 67.8462C19.624 67.5619 19.1383 67.2636 18.6613 66.942C18.6741 66.7789 18.6957 66.6158 18.7171 66.4526C18.7644 66.0938 18.8032 65.7302 18.829 65.3713C18.998 62.85 18.5766 60.3232 17.604 58.0258V58.0211C17.5179 57.8347 17.4665 57.7321 17.4665 57.7321C17.4665 57.7321 18.7171 56.5669 20.5008 57.7321C20.6148 57.8047 20.7154 57.8995 20.7976 58.0118C21.8721 59.3867 22.1643 64.0103 22.1127 67.3149Z" fill="#2F2E41"/>
<path d="M41.7989 66.9683C41.7817 67.5093 41.7558 68.0745 41.7256 68.6493V68.6542C41.7214 68.659 41.7126 68.659 41.7084 68.6638C40.7321 69.1869 39.7249 69.634 38.6937 70.0019C38.6895 70.0019 38.6853 70.0067 38.6809 70.0067L38.6335 68.6493L38.629 68.4706L38.4006 61.8624C38.3945 61.7129 38.4155 61.5634 38.4623 61.4232C38.5092 61.2829 38.581 61.1548 38.6732 61.0465C38.7655 60.9381 38.8765 60.8518 38.9993 60.7928C39.1222 60.7338 39.2545 60.7033 39.3882 60.7031H41.5747C41.6825 60.7031 41.7602 60.9495 41.812 61.3939V61.3987C41.918 63.2535 41.9137 65.1142 41.7989 66.9683V66.9683Z" fill="#2F2E41"/>
<path d="M26.7701 36.2812V43.2589H28.3205L30.2935 41.0561L30.0294 43.2589H36.883L36.4592 41.0561L37.3069 43.2589H38.3995V36.2812H26.7701Z" fill="black"/>
<path d="M25.0257 44.4219C25.3468 44.4219 25.6071 44.1615 25.6071 43.8404C25.6071 43.5192 25.3468 43.2589 25.0257 43.2589C24.7045 43.2589 24.4442 43.5192 24.4442 43.8404C24.4442 44.1615 24.7045 44.4219 25.0257 44.4219Z" fill="#DFA8A8"/>
<path d="M38.981 44.4219C39.3022 44.4219 39.5625 44.1615 39.5625 43.8404C39.5625 43.5192 39.3022 43.2589 38.981 43.2589C38.6599 43.2589 38.3995 43.5192 38.3995 43.8404C38.3995 44.1615 38.6599 44.4219 38.981 44.4219Z" fill="#DFA8A8"/>
<path d="M53.3544 37.5648C52.2145 33.9705 50.3741 30.6924 47.9614 27.9591C45.5487 25.2258 42.6219 23.103 39.385 21.7388C36.148 20.3746 32.679 19.8019 29.2197 20.0605C25.7604 20.3191 22.3941 21.4029 19.3557 23.2362C16.3172 25.0695 13.6796 27.6083 11.6268 30.6755C9.57411 33.7426 8.15561 37.2644 7.4703 40.9951C6.78498 44.7258 6.84933 48.5758 7.65886 52.2764C8.46839 55.977 10.0036 59.4393 12.1575 62.4217C12.3714 62.7176 12.5939 63.0136 12.8207 63.3001C12.8378 63.3189 12.8506 63.3377 12.8677 63.3565C13.4256 64.0619 14.0185 64.733 14.6438 65.3668C14.8063 65.5312 14.9775 65.7003 15.1486 65.86C15.4739 66.1794 15.8076 66.4847 16.1543 66.7759C16.8311 67.3615 17.5368 67.9056 18.2682 68.4058L18.2939 68.4199C18.7689 68.744 19.2524 69.0446 19.7447 69.3311L19.9457 69.4439C20.4079 69.7069 20.8786 69.9558 21.3622 70.186C21.4606 70.233 21.5676 70.2799 21.666 70.3269C21.6745 70.3316 21.6789 70.3316 21.6875 70.3363C22.6645 70.7823 23.6682 71.1542 24.6916 71.4495C26.6976 72.0364 28.7648 72.3332 30.8408 72.3326C31.5982 72.3326 32.3471 72.295 33.0874 72.2151C34.779 72.0438 36.4489 71.6737 38.0686 71.1113C38.073 71.1113 38.0772 71.1066 38.0813 71.1066C39.1045 70.7489 40.104 70.3142 41.0727 69.8055C41.0769 69.8008 41.0856 69.8008 41.0898 69.7961C41.3079 69.6834 41.5177 69.5613 41.7317 69.4439L41.8345 69.3875C42.0056 69.2889 42.1768 69.1902 42.3479 69.0869C42.7758 68.8285 43.1952 68.5561 43.6104 68.2649C43.7259 68.1897 43.8371 68.1099 43.9526 68.0253C44.3292 67.7529 44.7015 67.4617 45.0609 67.1658C45.1253 67.1141 45.1936 67.0624 45.2579 67.0061C49.267 63.6658 52.2096 59.0182 53.664 53.7293C55.1185 48.4404 55.0101 42.7819 53.3544 37.5648ZM44.4704 65.8647C44.3292 65.9868 44.1837 66.1042 44.0383 66.2123C43.897 66.3297 43.7558 66.4424 43.6104 66.5458C43.4863 66.6444 43.3621 66.7383 43.2336 66.8276C43.1266 66.9074 43.0197 66.9826 42.9127 67.0577C42.5577 67.302 42.1983 67.5369 41.8345 67.7623C41.7958 67.7858 41.7574 67.8093 41.7187 67.8328C41.5562 67.9314 41.3936 68.0253 41.231 68.1193C41.2095 68.1334 41.1838 68.1428 41.1625 68.1569L41.1368 68.171C40.9314 68.2884 40.7218 68.4011 40.512 68.5091C39.7029 68.9369 38.8695 69.3071 38.0172 69.6176C37.906 69.6599 37.7946 69.7022 37.6835 69.7398C36.1504 70.275 34.5694 70.6277 32.9677 70.7919C32.2658 70.8624 31.5554 70.9 30.8408 70.9C28.8771 70.9044 26.9216 70.6233 25.0252 70.0639C24.052 69.785 23.0982 69.4303 22.171 69.0023C22.0726 68.9601 21.9741 68.9131 21.8799 68.8708C21.8287 68.8473 21.7815 68.8238 21.7301 68.7957C21.3279 68.6031 20.93 68.3917 20.5405 68.171L20.3523 68.0629C19.8773 67.7905 19.4107 67.4993 18.9571 67.1893C18.7904 67.0765 18.6234 66.9591 18.4608 66.837C17.9473 66.4659 17.4466 66.0667 16.9587 65.6486C16.6292 65.3762 16.3126 65.085 16.0044 64.7844C15.8419 64.634 15.6835 64.4696 15.5295 64.3146C14.9228 63.6997 14.3484 63.0473 13.8092 62.3607C13.6295 62.1352 13.454 61.9097 13.287 61.6749C13.2491 61.6284 13.2134 61.5798 13.18 61.5293C10.3996 57.6782 8.72727 53.0054 8.37619 48.1069C8.0251 43.2083 9.01123 38.306 11.2088 34.0251C13.4064 29.7442 16.7158 26.2788 20.715 24.0707C24.7142 21.8627 29.222 21.0121 33.6634 21.6275C38.1048 22.2428 42.2785 24.2963 45.6524 27.5259C49.0263 30.7555 51.4473 35.0149 52.6067 39.7609C53.7662 44.507 53.6115 49.5245 52.1624 54.1736C50.7133 58.8228 48.0355 62.8928 44.4704 65.8647Z" fill="#C9C9C9"/>
</svg>