<svg  viewBox="0 0 219 140" fill="none" xmlns="http://www.w3.org/2000/svg">
<path d="M218.499 0.123657H0.0931396V140H218.499V0.123657Z" fill="#F2F2F2"/>
<path d="M212.253 17.6676H6.3385V131.725H212.253V17.6676Z" fill="white"/>
<path d="M218.405 0H0V9.27857H218.405V0Z" fill="#757687"/>
<path d="M6.89541 6.46379C7.84527 6.46379 8.61528 5.69378 8.61528 4.74392C8.61528 3.79406 7.84527 3.02405 6.89541 3.02405C5.94555 3.02405 5.17554 3.79406 5.17554 4.74392C5.17554 5.69378 5.94555 6.46379 6.89541 6.46379Z" fill="white"/>
<path d="M13.4229 6.46379C14.3728 6.46379 15.1428 5.69378 15.1428 4.74392C15.1428 3.79406 14.3728 3.02405 13.4229 3.02405C12.4731 3.02405 11.7031 3.79406 11.7031 4.74392C11.7031 5.69378 12.4731 6.46379 13.4229 6.46379Z" fill="white"/>
<path d="M19.9505 6.46379C20.9003 6.46379 21.6703 5.69378 21.6703 4.74392C21.6703 3.79406 20.9003 3.02405 19.9505 3.02405C19.0006 3.02405 18.2306 3.79406 18.2306 4.74392C18.2306 5.69378 19.0006 6.46379 19.9505 6.46379Z" fill="white"/>
<path d="M71.9477 27.0491H31.6738V70.7427H71.9477V27.0491Z" fill="#F2F2F2"/>
<path d="M129.432 27.0491H89.1586V70.7427H129.432V27.0491Z" fill="#F2F2F2"/>
<path d="M186.917 27.0491H146.643V70.7427H186.917V27.0491Z" fill="#F2F2F2"/>
<path d="M71.9477 78.6514H31.6738V122.345H71.9477V78.6514Z" fill="#F2F2F2"/>
<path d="M129.432 78.6514H89.1586V122.345H129.432V78.6514Z" fill="#F2F2F2"/>
<path d="M186.917 78.6514H146.643V122.345H186.917V78.6514Z" fill="#F2F2F2"/>
<path d="M98.8928 89.8808L106.251 86.9716L107.107 101.517C107.107 101.517 108.647 105.967 108.134 107.678C108.134 107.678 108.476 110.587 107.62 110.758C106.765 110.929 104.368 111.272 104.199 111.101C104.029 110.929 104.028 110.416 104.028 110.416C104.028 110.416 102.316 111.614 102.145 112.983C102.145 112.983 94.9578 115.207 94.7867 113.154C94.6157 111.1 98.3803 109.389 98.3803 109.389L101.29 104.94L98.8928 89.8808Z" fill="#A9AABC"/>
<path d="M114.466 89.8808L121.824 86.9716L122.679 101.517C122.679 101.517 124.219 105.967 123.706 107.678C123.706 107.678 124.048 110.587 123.193 110.758C122.337 110.929 119.94 111.272 119.771 111.101C119.602 110.929 119.6 110.416 119.6 110.416C119.6 110.416 117.889 111.614 117.718 112.983C117.718 112.983 110.53 115.207 110.359 113.154C110.188 111.1 113.953 109.389 113.953 109.389L116.862 104.94L114.466 89.8808Z" fill="#A9AABC"/>
<path d="M115.185 33.7098C115.185 33.7098 113.618 38.0879 115.434 40.0622L113.92 45.2632C113.92 45.2632 119.298 61.3955 117.761 63.6489C117.761 63.6489 112.025 66.5168 100.552 62.6245L105.213 44.546L104.547 36.9152L105.469 33.3301L107.517 33.1268C107.517 33.1268 106.288 37.736 108.542 38.4531C110.795 39.1703 112.993 33.242 112.993 33.242L115.185 33.7098Z" fill="#6C8BF5"/>
<path d="M42.826 61.9713L44.8034 62.7802L54.2405 50.3773L57.2063 64.9371L59.1836 64.5777C60.4519 52.025 61.4872 39.2217 60.2172 33.166L52.8922 32.8513L49.567 43.4581L47.9491 50.6483L42.826 61.9713Z" fill="#A9AABC"/>
<path d="M162.833 33.0668C162.833 33.0668 160.135 36.8182 160.267 38.3321C160.398 39.846 162.109 64.5272 162.109 64.5272L166.124 64.7247L164.939 46.9541L165.926 42.1495L168.361 64.5272L173.298 64.659L168.888 35.6339L168.032 33.0671L162.833 33.0668Z" fill="#A9AABC"/>
<path d="M178.085 93.5032C177.368 92.6434 176.137 92.1786 174.954 91.9273C174.988 91.8199 171.357 91.0695 171.295 91.224L169.927 90.1335L165.72 92.3175L163.357 90.7084L162.259 91.098C162.303 90.9042 158.85 91.5025 158.85 91.5025C158.191 91.5262 157.348 91.5675 156.405 91.64C153.103 91.8941 152.848 100.448 152.848 100.448C154.368 99.8261 155.988 99.4869 157.629 99.4467L158.522 109.677C163.113 109.284 167.928 109.742 172.919 110.863L175.26 102.821L180.71 100.701C180.71 100.701 179.779 95.5354 178.085 93.5032Z" fill="#6C8BF5"/>
<path d="M61.1257 88.6315C60.5353 87.9231 59.5207 87.54 58.5461 87.333C58.5752 87.2443 55.5823 86.6264 55.5312 86.7537L54.4031 85.8553L50.9379 87.6548L48.9904 86.3293L48.0859 86.6504C48.1229 86.4909 45.2776 86.9834 45.2776 86.9834C44.7356 87.0031 44.0398 87.0369 43.263 87.0969C40.5418 87.3062 40.3325 94.3534 40.3325 94.3534C41.5845 93.8412 42.9195 93.5617 44.2719 93.5285L45.0073 114.164C48.7902 113.839 52.7577 114.217 56.8689 115.141L58.7971 96.3091L63.288 94.5628C63.288 94.5628 62.5211 90.3066 61.1257 88.6315Z" fill="#A9AABC"/>
</svg>
