<svg viewBox="0 0 200 130" fill="none" xmlns="http://www.w3.org/2000/svg">
<path d="M199.757 0H0.040741V129.816H199.757V0Z" fill="#F2F2F2"/>
<path d="M199.716 0.118896H0V7.25162H199.716V0.118896Z" fill="#757687"/>
<path d="M179.959 27.0449H72.4926V49.1564H179.959V27.0449Z" fill="#6C8BF5"/>
<path d="M4.55806 5.23062C5.47724 5.23062 6.22238 4.48548 6.22238 3.5663C6.22238 2.64712 5.47724 1.90198 4.55806 1.90198C3.63888 1.90198 2.89374 2.64712 2.89374 3.5663C2.89374 4.48548 3.63888 5.23062 4.55806 5.23062Z" fill="white"/>
<path d="M10.2642 5.23062C11.1834 5.23062 11.9286 4.48548 11.9286 3.5663C11.9286 2.64712 11.1834 1.90198 10.2642 1.90198C9.34506 1.90198 8.59991 2.64712 8.59991 3.5663C8.59991 4.48548 9.34506 5.23062 10.2642 5.23062Z" fill="white"/>
<path d="M15.9704 5.23062C16.8896 5.23062 17.6347 4.48548 17.6347 3.5663C17.6347 2.64712 16.8896 1.90198 15.9704 1.90198C15.0512 1.90198 14.3061 2.64712 14.3061 3.5663C14.3061 4.48548 15.0512 5.23062 15.9704 5.23062Z" fill="white"/>
<path d="M117.69 67.642H87.4947C86.1816 67.642 85.1171 68.7064 85.1171 70.0195C85.1171 71.3326 86.1816 72.3971 87.4947 72.3971H117.69C119.003 72.3971 120.067 71.3326 120.067 70.0195C120.067 68.7064 119.003 67.642 117.69 67.642Z" fill="#A9AABC"/>
<path d="M172.85 67.642H142.654C141.341 67.642 140.277 68.7064 140.277 70.0195C140.277 71.3326 141.341 72.3971 142.654 72.3971H172.85C174.163 72.3971 175.227 71.3326 175.227 70.0195C175.227 68.7064 174.163 67.642 172.85 67.642Z" fill="#A9AABC"/>
<path d="M117.785 104.435H87.5902C86.2771 104.435 85.2126 105.499 85.2126 106.813C85.2126 108.126 86.2771 109.19 87.5902 109.19H117.785C119.099 109.19 120.163 108.126 120.163 106.813C120.163 105.499 119.099 104.435 117.785 104.435Z" fill="#A9AABC"/>
<path d="M172.826 85.5332H87.7091C86.396 85.5332 85.3315 86.5977 85.3315 87.9108C85.3315 89.2239 86.396 90.2884 87.7091 90.2884H172.826C174.139 90.2884 175.204 89.2239 175.204 87.9108C175.204 86.5977 174.139 85.5332 172.826 85.5332Z" fill="#A9AABC"/>
<g clip-path="url(#clip0)">
<path d="M53.0837 45.0148C53.0486 44.7598 52.8253 44.6187 52.6406 44.6031C52.4564 44.5878 48.5566 44.2987 48.5566 44.2987C48.5566 44.2987 45.8482 41.6098 45.5509 41.3122C45.2535 41.0148 44.6726 41.1053 44.4471 41.1716C44.4139 41.1814 43.8554 41.3538 42.9314 41.6397C42.0267 39.0363 40.43 36.6438 37.621 36.6438C37.5434 36.6438 37.4636 36.6469 37.3838 36.6515C36.5849 35.595 35.5953 35.136 34.7405 35.136C28.197 35.136 25.0708 43.3161 24.0906 47.4729C21.5479 48.2608 19.7416 48.8209 19.5109 48.8934C18.0916 49.3386 18.0467 49.3833 17.8604 50.7207C17.7201 51.7332 14.0066 80.4519 14.0066 80.4519L42.9435 85.8736L58.6225 82.4818C58.6225 82.4818 53.1185 45.2698 53.0839 45.0148H53.0837ZM41.3321 42.1343L38.8836 42.8922C38.8844 42.7196 38.8853 42.5498 38.8853 42.3642C38.8853 40.7462 38.6607 39.4434 38.3004 38.4106C39.7478 38.5923 40.7117 40.2391 41.3321 42.1343ZM36.5049 38.7315C36.9073 39.7398 37.169 41.1868 37.169 43.1395C37.169 43.2394 37.1681 43.3307 37.1672 43.4231C35.5749 43.9164 33.8445 44.4519 32.1103 44.9891C33.0841 41.2312 34.9092 39.4161 36.5049 38.7315ZM34.5608 36.8911C34.8432 36.8911 35.1277 36.987 35.4 37.1744C33.3029 38.1612 31.0551 40.6466 30.1058 45.6098L26.1086 46.8478C27.2205 43.0621 29.8606 36.8911 34.5606 36.8911H34.5608Z" fill="#6C8BF5"/>
<path d="M52.6407 44.6032C52.4565 44.5878 48.5567 44.2988 48.5567 44.2988C48.5567 44.2988 45.8483 41.6099 45.551 41.3123C45.4398 41.2016 45.2897 41.1448 45.1329 41.1204L42.9449 85.8734L58.6226 82.4819C58.6226 82.4819 53.1184 45.2699 53.0838 45.0149C53.0487 44.7599 52.8253 44.6188 52.6407 44.6032Z" fill="#5E56E0"/>
<path d="M37.621 53.2667L35.6878 59.0175C35.6878 59.0175 33.9939 58.1134 31.9176 58.1134C28.8737 58.1134 28.7205 60.0237 28.7205 60.505C28.7205 63.1315 35.5671 64.1379 35.5671 70.29C35.5671 75.1303 32.4971 78.2471 28.3577 78.2471C23.3904 78.2471 20.8502 75.1557 20.8502 75.1557L22.1802 70.7613C22.1802 70.7613 24.7914 73.003 26.9947 73.003C28.4344 73.003 29.02 71.8695 29.02 71.0413C29.02 67.6152 23.403 67.4623 23.403 61.8326C23.403 57.0943 26.804 52.509 33.6691 52.509C36.3142 52.509 37.621 53.2667 37.621 53.2667Z" fill="white"/>
</g>
<defs>
<clipPath id="clip0">
<rect width="44.7123" height="51" fill="white" transform="translate(14 35)"/>
</clipPath>
</defs>
</svg>
