<svg viewBox="0 0 203 130" fill="none" xmlns="http://www.w3.org/2000/svg">
<path d="M197.22 130H5.50544C4.19674 129.999 2.94207 129.478 2.01668 128.553C1.09129 127.627 0.570754 126.373 0.569275 125.064V6.84904C0.570341 5.89027 0.951675 4.97108 1.62961 4.29311C2.30755 3.61514 3.22674 3.23377 4.18551 3.23267H198.477C199.452 3.23377 200.387 3.62173 201.077 4.31142C201.767 5.00111 202.155 5.93621 202.156 6.91156V125.064C202.154 126.373 201.634 127.627 200.708 128.553C199.783 129.478 198.528 129.999 197.22 130Z" fill="#F2F2F2"/>
<path d="M202.087 7.46413H0.5V4.95106C0.501898 3.63801 1.02456 2.37933 1.95331 1.45115C2.88206 0.522969 4.14106 0.00108876 5.45411 0H197.133C198.446 0.00107769 199.705 0.522953 200.634 1.45114C201.563 2.37932 202.085 3.63801 202.087 4.95106V7.46413Z" fill="#757687"/>
<path d="M9.50339 5.021C10.2111 5.021 10.7848 4.44728 10.7848 3.73956C10.7848 3.03185 10.2111 2.45813 9.50339 2.45813C8.79567 2.45813 8.22195 3.03185 8.22195 3.73956C8.22195 4.44728 8.79567 5.021 9.50339 5.021Z" fill="white"/>
<path d="M14.3674 5.021C15.0751 5.021 15.6488 4.44728 15.6488 3.73956C15.6488 3.03185 15.0751 2.45813 14.3674 2.45813C13.6597 2.45813 13.0859 3.03185 13.0859 3.73956C13.0859 4.44728 13.6597 5.021 14.3674 5.021Z" fill="white"/>
<path d="M19.2314 5.021C19.9391 5.021 20.5128 4.44728 20.5128 3.73956C20.5128 3.03185 19.9391 2.45813 19.2314 2.45813C18.5237 2.45813 17.95 3.03185 17.95 3.73956C17.95 4.44728 18.5237 5.021 19.2314 5.021Z" fill="white"/>
<path d="M97.4459 35.5866H62.5014C61.9805 35.5866 61.4808 35.3797 61.1124 35.0113C60.7441 34.6429 60.5371 34.1433 60.5371 33.6223C60.5371 33.1013 60.7441 32.6017 61.1124 32.2333C61.4808 31.8649 61.9805 31.658 62.5014 31.658H97.4459C97.9669 31.658 98.4666 31.8649 98.8349 32.2333C99.2033 32.6017 99.4103 33.1013 99.4103 33.6223C99.4103 34.1433 99.2033 34.6429 98.8349 35.0113C98.4666 35.3797 97.9669 35.5866 97.4459 35.5866Z" fill="#A9AABC"/>
<path d="M140.868 35.5866H105.924C105.403 35.5866 104.903 35.3797 104.535 35.0113C104.166 34.6429 103.959 34.1433 103.959 33.6223C103.959 33.1013 104.166 32.6017 104.535 32.2333C104.903 31.8649 105.403 31.658 105.924 31.658H140.868C141.389 31.658 141.889 31.8649 142.257 32.2333C142.625 32.6017 142.832 33.1013 142.832 33.6223C142.832 34.1433 142.625 34.6429 142.257 35.0113C141.889 35.3797 141.389 35.5866 140.868 35.5866Z" fill="#A9AABC"/>
<path d="M140.868 43.0304H80.0771C79.5561 43.0304 79.0565 42.8234 78.6881 42.455C78.3197 42.0866 78.1128 41.587 78.1128 41.066C78.1128 40.545 78.3197 40.0454 78.6881 39.677C79.0565 39.3086 79.5561 39.1017 80.0771 39.1017H140.868C141.389 39.1017 141.889 39.3086 142.257 39.677C142.625 40.0454 142.832 40.545 142.832 41.066C142.832 41.587 142.625 42.0866 142.257 42.455C141.889 42.8234 141.389 43.0304 140.868 43.0304Z" fill="#A9AABC"/>
<path d="M97.4459 28.0394H62.5014C61.9809 28.0387 61.4819 27.8315 61.114 27.4632C60.7462 27.0949 60.5395 26.5956 60.5395 26.0751C60.5395 25.5545 60.7462 25.0552 61.114 24.6869C61.4819 24.3186 61.9809 24.1114 62.5014 24.1107H97.4459C97.7041 24.1104 97.9598 24.161 98.1984 24.2595C98.437 24.3581 98.6538 24.5028 98.8365 24.6852C99.0192 24.8676 99.1641 25.0843 99.2629 25.3228C99.3618 25.5613 99.4127 25.8169 99.4127 26.0751C99.4127 26.3332 99.3618 26.5888 99.2629 26.8273C99.1641 27.0658 99.0192 27.2825 98.8365 27.4649C98.6538 27.6473 98.437 27.792 98.1984 27.8906C97.9598 27.9891 97.7041 28.0397 97.4459 28.0394Z" fill="#A9AABC"/>
<path d="M116.676 28.1428H106.751C106.23 28.1428 105.73 27.9358 105.362 27.5674C104.993 27.1991 104.786 26.6994 104.786 26.1784C104.786 25.6575 104.993 25.1578 105.362 24.7895C105.73 24.4211 106.23 24.2141 106.751 24.2141H116.676C117.197 24.2141 117.696 24.4211 118.065 24.7895C118.433 25.1578 118.64 25.6575 118.64 26.1784C118.64 26.6994 118.433 27.1991 118.065 27.5674C117.696 27.9358 117.197 28.1428 116.676 28.1428Z" fill="#A9AABC"/>
<path d="M72.4265 43.0304H62.5014C61.9809 43.0297 61.4819 42.8225 61.114 42.4542C60.7462 42.0858 60.5395 41.5866 60.5395 41.066C60.5395 40.5455 60.7462 40.0462 61.114 39.6779C61.4819 39.3096 61.9809 39.1023 62.5014 39.1017H72.4265C72.6847 39.1014 72.9404 39.1519 73.179 39.2505C73.4176 39.3491 73.6344 39.4937 73.8171 39.6762C73.9997 39.8586 74.1446 40.0753 74.2435 40.3137C74.3424 40.5522 74.3933 40.8079 74.3933 41.066C74.3933 41.3242 74.3424 41.5798 74.2435 41.8183C74.1446 42.0568 73.9997 42.2734 73.8171 42.4559C73.6344 42.6383 73.4176 42.7829 73.179 42.8815C72.9404 42.9801 72.6847 43.0307 72.4265 43.0304Z" fill="#A9AABC"/>
<path d="M97.4459 105.291H62.5014C61.9805 105.291 61.4808 105.084 61.1124 104.716C60.7441 104.347 60.5371 103.848 60.5371 103.327C60.5371 102.806 60.7441 102.306 61.1124 101.938C61.4808 101.57 61.9805 101.363 62.5014 101.363H97.4459C97.7039 101.363 97.9593 101.413 98.1977 101.512C98.436 101.611 98.6525 101.755 98.8349 101.938C99.0173 102.12 99.162 102.337 99.2607 102.575C99.3595 102.813 99.4103 103.069 99.4103 103.327C99.4103 103.585 99.3595 103.84 99.2607 104.079C99.162 104.317 99.0173 104.533 98.8349 104.716C98.6525 104.898 98.436 105.043 98.1977 105.142C97.9593 105.24 97.7039 105.291 97.4459 105.291Z" fill="#A9AABC"/>
<path d="M140.868 105.291H105.924C105.403 105.291 104.903 105.084 104.535 104.716C104.166 104.347 103.959 103.848 103.959 103.327C103.959 102.806 104.166 102.306 104.535 101.938C104.903 101.57 105.403 101.363 105.924 101.363H140.868C141.126 101.363 141.381 101.413 141.62 101.512C141.858 101.611 142.075 101.755 142.257 101.938C142.439 102.12 142.584 102.337 142.683 102.575C142.782 102.813 142.832 103.069 142.832 103.327C142.832 103.585 142.782 103.84 142.683 104.079C142.584 104.317 142.439 104.533 142.257 104.716C142.075 104.898 141.858 105.043 141.62 105.142C141.381 105.24 141.126 105.291 140.868 105.291Z" fill="#A9AABC"/>
<path d="M140.868 112.735H80.0771C79.5561 112.735 79.0565 112.528 78.6881 112.16C78.3197 111.791 78.1128 111.292 78.1128 110.771C78.1128 110.25 78.3197 109.75 78.6881 109.382C79.0565 109.013 79.5561 108.806 80.0771 108.806H140.868C141.126 108.806 141.382 108.857 141.621 108.955C141.859 109.054 142.076 109.198 142.259 109.381C142.441 109.563 142.586 109.78 142.685 110.018C142.784 110.257 142.835 110.513 142.835 110.771C142.835 111.029 142.784 111.285 142.685 111.523C142.586 111.761 142.441 111.978 142.259 112.161C142.076 112.343 141.859 112.488 141.621 112.586C141.382 112.685 141.126 112.735 140.868 112.735Z" fill="#A9AABC"/>
<path d="M97.4459 97.7441H62.5014C61.9805 97.7441 61.4808 97.5371 61.1124 97.1688C60.7441 96.8004 60.5371 96.3007 60.5371 95.7798C60.5371 95.2588 60.7441 94.7592 61.1124 94.3908C61.4808 94.0224 61.9805 93.8154 62.5014 93.8154H97.4459C97.9669 93.8154 98.4666 94.0224 98.8349 94.3908C99.2033 94.7592 99.4103 95.2588 99.4103 95.7798C99.4103 96.3007 99.2033 96.8004 98.8349 97.1688C98.4666 97.5371 97.9669 97.7441 97.4459 97.7441Z" fill="#A9AABC"/>
<path d="M116.676 97.8474H106.751C106.23 97.8474 105.73 97.6404 105.362 97.272C104.993 96.9037 104.786 96.404 104.786 95.883C104.786 95.3621 104.993 94.8624 105.362 94.494C105.73 94.1257 106.23 93.9187 106.751 93.9187H116.676C117.197 93.9187 117.696 94.1257 118.065 94.494C118.433 94.8624 118.64 95.3621 118.64 95.883C118.64 96.404 118.433 96.9037 118.065 97.272C117.696 97.6404 117.197 97.8474 116.676 97.8474Z" fill="#A9AABC"/>
<path d="M72.4265 112.735H62.5014C61.9805 112.735 61.4808 112.528 61.1124 112.16C60.7441 111.791 60.5371 111.292 60.5371 110.771C60.5371 110.25 60.7441 109.75 61.1124 109.382C61.4808 109.013 61.9805 108.806 62.5014 108.806H72.4265C72.6847 108.806 72.9404 108.857 73.179 108.955C73.4176 109.054 73.6344 109.198 73.8171 109.381C73.9997 109.563 74.1446 109.78 74.2435 110.018C74.3424 110.257 74.3933 110.513 74.3933 110.771C74.3933 111.029 74.3424 111.285 74.2435 111.523C74.1446 111.761 73.9997 111.978 73.8171 112.161C73.6344 112.343 73.4176 112.488 73.179 112.586C72.9404 112.685 72.6847 112.735 72.4265 112.735Z" fill="#A9AABC"/>
<path d="M88.3196 84.2025C87.578 84.2041 86.8658 83.9127 86.3381 83.3917L73.2023 70.4203C72.9444 70.1656 72.7396 69.8623 72.5999 69.5279C72.4601 69.1935 72.3882 68.8347 72.3882 68.4722C72.3882 68.1098 72.4601 67.751 72.5999 67.4166C72.7396 67.0822 72.9444 66.7788 73.2023 66.5242L86.285 53.6051C86.83 53.0695 87.5643 52.7704 88.3284 52.7728C89.0926 52.7752 89.8249 53.0789 90.3666 53.6179C90.9087 54.1613 91.2132 54.8976 91.2132 55.6652C91.2133 56.4328 90.9088 57.1691 90.3666 57.7125L80.6451 67.4342C80.3422 67.7378 80.1721 68.1492 80.1721 68.578C80.1721 69.0068 80.3422 69.4182 80.6451 69.7218L90.3139 79.3907C90.7087 79.7848 90.9777 80.2872 91.0868 80.8342C91.1958 81.3813 91.14 81.9484 90.9264 82.4638C90.7128 82.9791 90.3511 83.4194 89.887 83.7289C89.4229 84.0385 88.8774 84.2033 88.3196 84.2025V84.2025Z" fill="#6C8BF5"/>
<path d="M109.251 84.2025C108.693 84.2033 108.147 84.0385 107.683 83.7289C107.219 83.4194 106.857 82.9791 106.644 82.4638C106.43 81.9484 106.374 81.3813 106.483 80.8342C106.592 80.2872 106.861 79.7848 107.256 79.3907L116.925 69.7218C117.228 69.4182 117.398 69.0069 117.398 68.578C117.398 68.1492 117.228 67.7378 116.925 67.4342L107.203 57.7125C106.935 57.4436 106.721 57.1245 106.576 56.7732C106.43 56.4219 106.355 56.0454 106.355 55.6652C106.355 55.285 106.43 54.9085 106.576 54.5572C106.721 54.206 106.935 53.8868 107.204 53.618C107.745 53.0789 108.478 52.7752 109.242 52.7728C110.006 52.7704 110.74 53.0695 111.285 53.6051L124.368 66.5242C124.626 66.7788 124.83 67.0822 124.97 67.4166C125.11 67.751 125.182 68.1098 125.182 68.4722C125.182 68.8347 125.11 69.1935 124.97 69.5279C124.83 69.8623 124.626 70.1656 124.368 70.4203L111.232 83.3917C110.704 83.9127 109.992 84.2041 109.251 84.2025Z" fill="#6C8BF5"/>
</svg>
