<svg viewBox="0 0 153 131" fill="none" xmlns="http://www.w3.org/2000/svg">
<path d="M97.3165 129.388H6.43663C3.42445 129.388 1 126.206 1 122.252V40.6659C1 36.712 3.42445 33.5295 6.43663 33.5295H97.3899C100.402 33.5295 102.827 36.712 102.827 40.6659V122.252C102.753 126.206 100.329 129.388 97.3165 129.388Z" fill="#F2F2F2"/>
<path d="M102.753 49.056H1V40.6659C1 36.712 3.42445 33.5295 6.43663 33.5295H97.3899C100.402 33.5295 102.827 36.712 102.827 40.6659V49.056H102.753Z" fill="#757687"/>
<path d="M97.3165 129.388H6.43663C3.42445 129.388 1 126.206 1 122.252V40.6659C1 36.712 3.42445 33.5295 6.43663 33.5295H97.3899C100.402 33.5295 102.827 36.712 102.827 40.6659V122.252C102.753 126.206 100.329 129.388 97.3165 129.388Z" stroke="#E6E6E6" stroke-width="2" stroke-miterlimit="10" stroke-linecap="round" stroke-linejoin="round"/>
<path d="M97.3165 129.388H6.43663C3.42445 129.388 1 126.206 1 122.252V40.6659C1 36.712 3.42445 33.5295 6.43663 33.5295H97.3899C100.402 33.5295 102.827 36.712 102.827 40.6659V122.252C102.753 126.206 100.329 129.388 97.3165 129.388Z" stroke="#E6E6E6" stroke-width="2" stroke-miterlimit="10" stroke-linecap="round" stroke-linejoin="round"/>
<path d="M102.753 49.056H1V40.6659C1 36.712 3.42445 33.5295 6.43663 33.5295H97.3899C100.402 33.5295 102.827 36.712 102.827 40.6659V49.056H102.753Z" stroke="#E6E6E6" stroke-width="2" stroke-miterlimit="10" stroke-linecap="round" stroke-linejoin="round"/>
<path d="M15.0323 117.142H26.4933" stroke="#A9AABC" stroke-width="2" stroke-miterlimit="10" stroke-linecap="round" stroke-linejoin="round"/>
<path d="M6.95087 117.142H7.75902" stroke="#A9AABC" stroke-width="2" stroke-miterlimit="10" stroke-linecap="round" stroke-linejoin="round"/>
<path d="M15.0323 108.846H44.0522" stroke="#A9AABC" stroke-width="2" stroke-miterlimit="10" stroke-linecap="round" stroke-linejoin="round"/>
<path d="M6.95087 108.846H7.75902" stroke="#A9AABC" stroke-width="2" stroke-miterlimit="10" stroke-linecap="round" stroke-linejoin="round"/>
<path d="M57.8642 100.458H65.7987" stroke="#A9AABC" stroke-width="2" stroke-miterlimit="10" stroke-linecap="round" stroke-linejoin="round"/>
<path d="M36.2645 100.458H50.9581" stroke="#A9AABC" stroke-width="2" stroke-miterlimit="10" stroke-linecap="round" stroke-linejoin="round"/>
<path d="M15.0323 100.458H29.579" stroke="#A9AABC" stroke-width="2" stroke-miterlimit="10" stroke-linecap="round" stroke-linejoin="round"/>
<path d="M6.95087 100.458H7.75902" stroke="#A9AABC" stroke-width="2" stroke-miterlimit="10" stroke-linecap="round" stroke-linejoin="round"/>
<path d="M39.4971 92.1633H74.9087" stroke="#A9AABC" stroke-width="2" stroke-miterlimit="10" stroke-linecap="round" stroke-linejoin="round"/>
<path d="M15.0323 92.1633H33.5463" stroke="#A9AABC" stroke-width="2" stroke-miterlimit="10" stroke-linecap="round" stroke-linejoin="round"/>
<path d="M6.95087 92.1633H7.75902" stroke="#A9AABC" stroke-width="2" stroke-miterlimit="10" stroke-linecap="round" stroke-linejoin="round"/>
<path d="M39.4971 83.8733H52.7214" stroke="#A9AABC" stroke-width="2" stroke-miterlimit="10" stroke-linecap="round" stroke-linejoin="round"/>
<path d="M15.0323 83.8733H33.5463" stroke="#A9AABC" stroke-width="2" stroke-miterlimit="10" stroke-linecap="round" stroke-linejoin="round"/>
<path d="M6.95087 83.8733H7.75902" stroke="#A9AABC" stroke-width="2" stroke-miterlimit="10" stroke-linecap="round" stroke-linejoin="round"/>
<path d="M42.0685 75.5782H45.6684" stroke="#A9AABC" stroke-width="2" stroke-miterlimit="10" stroke-linecap="round" stroke-linejoin="round"/>
<path d="M28.1098 75.5782H36.2647" stroke="#A9AABC" stroke-width="2" stroke-miterlimit="10" stroke-linecap="round" stroke-linejoin="round"/>
<path d="M15.0323 75.5782H21.7914" stroke="#A9AABC" stroke-width="2" stroke-miterlimit="10" stroke-linecap="round" stroke-linejoin="round"/>
<path d="M6.95087 75.5782H7.75902" stroke="#A9AABC" stroke-width="2" stroke-miterlimit="10" stroke-linecap="round" stroke-linejoin="round"/>
<path d="M68.5172 67.1863H74.9089" stroke="#A9AABC" stroke-width="2" stroke-miterlimit="10" stroke-linecap="round" stroke-linejoin="round"/>
<path d="M35.3829 67.1863H60.4355" stroke="#A9AABC" stroke-width="2" stroke-miterlimit="10" stroke-linecap="round" stroke-linejoin="round"/>
<path d="M15.0323 67.1863H29.9463" stroke="#A9AABC" stroke-width="2" stroke-miterlimit="10" stroke-linecap="round" stroke-linejoin="round"/>
<path d="M6.95087 67.1863H7.75902" stroke="#A9AABC" stroke-width="2" stroke-miterlimit="10" stroke-linecap="round" stroke-linejoin="round"/>
<path d="M52.7214 58.8947H65.7987" stroke="#A9AABC" stroke-width="2" stroke-miterlimit="10" stroke-linecap="round" stroke-linejoin="round"/>
<path d="M36.2645 58.8947H46.4031" stroke="#A9AABC" stroke-width="2" stroke-miterlimit="10" stroke-linecap="round" stroke-linejoin="round"/>
<path d="M25.2443 58.8947H30.9748" stroke="#A9AABC" stroke-width="2" stroke-miterlimit="10" stroke-linecap="round" stroke-linejoin="round"/>
<path d="M15.0323 58.8947H19.7343" stroke="#A9AABC" stroke-width="2" stroke-miterlimit="10" stroke-linecap="round" stroke-linejoin="round"/>
<path d="M6.95087 58.8948H7.75902" stroke="#A9AABC" stroke-width="2" stroke-miterlimit="10" stroke-linecap="round" stroke-linejoin="round"/>
<path d="M11.065 43.7522C12.0794 43.7522 12.9017 42.6728 12.9017 41.3412C12.9017 40.0097 12.0794 38.9303 11.065 38.9303C10.0507 38.9303 9.22833 40.0097 9.22833 41.3412C9.22833 42.6728 10.0507 43.7522 11.065 43.7522Z" fill="white"/>
<path d="M17.6769 43.7522C18.6913 43.7522 19.5136 42.6728 19.5136 41.3412C19.5136 40.0097 18.6913 38.9303 17.6769 38.9303C16.6625 38.9303 15.8402 40.0097 15.8402 41.3412C15.8402 42.6728 16.6625 43.7522 17.6769 43.7522Z" fill="white"/>
<path d="M24.3623 43.7522C25.3767 43.7522 26.199 42.6728 26.199 41.3412C26.199 40.0097 25.3767 38.9303 24.3623 38.9303C23.3479 38.9303 22.5256 40.0097 22.5256 41.3412C22.5256 42.6728 23.3479 43.7522 24.3623 43.7522Z" fill="white"/>
<path d="M153 41.3568L152.812 26.8912L143.434 26.9877C142.871 25.1554 142.214 23.5159 141.276 21.8765L147.842 14.933L137.806 4.80709L131.241 11.7506C129.647 10.8827 127.958 10.2076 126.176 9.7254L126.083 0.081665L112.014 0.274522L112.108 9.91826C110.326 10.4969 108.732 11.172 107.137 12.1363L100.385 5.38572L90.5368 15.7045L97.2896 22.4551C96.4455 24.0945 95.789 25.8304 95.32 27.6628L85.9412 27.7592L86.1288 42.2248L95.5076 42.1284C96.0703 43.9607 96.7268 45.6001 97.6647 47.2395L91.0995 54.183L101.135 64.3089L107.7 57.3654C109.295 58.2334 110.983 58.9085 112.765 59.3906L112.858 69.0344L126.927 68.8415L126.833 59.1978C128.615 58.6191 130.209 57.9441 131.804 56.9797L138.557 63.7303L148.404 53.4115L141.652 46.6609C142.496 45.0215 143.152 43.2856 143.621 41.4533L153 41.3568ZM119.705 45.793C113.609 45.8894 108.732 40.8747 108.638 34.6062C108.544 28.3378 113.421 23.3231 119.517 23.2266C125.614 23.1302 130.491 28.1449 130.585 34.4134C130.585 40.6818 125.708 45.6965 119.705 45.793Z" fill="white"/>
<path d="M153 41.3568L152.812 26.8912L143.434 26.9877C142.871 25.1554 142.214 23.5159 141.276 21.8765L147.842 14.933L137.806 4.80709L131.241 11.7506C129.647 10.8827 127.958 10.2076 126.176 9.7254L126.083 0.081665L112.014 0.274522L112.108 9.91826C110.326 10.4969 108.732 11.172 107.137 12.1363L100.385 5.38572L90.5368 15.7045L97.2896 22.4551C96.4455 24.0945 95.789 25.8304 95.32 27.6628L85.9412 27.7592L86.1288 42.2248L95.5076 42.1284C96.0703 43.9607 96.7268 45.6001 97.6647 47.2395L91.0995 54.183L101.135 64.3089L107.7 57.3654C109.295 58.2334 110.983 58.9085 112.765 59.3906L112.858 69.0344L126.927 68.8415L126.833 59.1978C128.615 58.6191 130.209 57.9441 131.804 56.9797L138.557 63.7303L148.404 53.4115L141.652 46.6609C142.496 45.0215 143.152 43.2856 143.621 41.4533L153 41.3568ZM119.705 45.793C113.609 45.8894 108.732 40.8747 108.638 34.6062C108.544 28.3378 113.421 23.3231 119.517 23.2266C125.614 23.1302 130.491 28.1449 130.585 34.4134C130.585 40.6818 125.708 45.6965 119.705 45.793Z" fill="#6C8BF5"/>
<path d="M153 41.3568L152.812 26.8912L143.434 26.9877C142.871 25.1554 142.214 23.5159 141.276 21.8765L147.842 14.933L137.806 4.80709L131.241 11.7506C129.647 10.8827 127.958 10.2076 126.176 9.7254L126.083 0.081665L112.014 0.274522L112.108 9.91826C110.326 10.4969 108.732 11.172 107.137 12.1363L100.385 5.38572L90.5368 15.7045L97.2896 22.4551C96.4455 24.0945 95.789 25.8304 95.32 27.6628L85.9412 27.7592L86.1288 42.2248L95.5076 42.1284C96.0703 43.9607 96.7268 45.6001 97.6647 47.2395L91.0995 54.183L101.135 64.3089L107.7 57.3654C109.295 58.2334 110.983 58.9085 112.765 59.3906L112.858 69.0344L126.927 68.8415L126.833 59.1978C128.615 58.6191 130.209 57.9441 131.804 56.9797L138.557 63.7303L148.404 53.4115L141.652 46.6609C142.496 45.0215 143.152 43.2856 143.621 41.4533L153 41.3568ZM119.705 45.793C113.609 45.8894 108.732 40.8747 108.638 34.6062C108.544 28.3378 113.421 23.3231 119.517 23.2266C125.614 23.1302 130.491 28.1449 130.585 34.4134C130.585 40.6818 125.708 45.6965 119.705 45.793Z" fill="#6C8BF5"/>
<g opacity="0.29">
<path opacity="0.29" d="M149.436 26.9904C149.436 26.9904 149.436 27.0761 149.436 26.9904H152.906V26.9047L149.436 26.9904Z" fill="#6C8BF5"/>
<path opacity="0.29" d="M137.244 11.8624L140.901 8.00492L137.9 4.91895L133.023 10.0301C134.524 10.5123 135.931 11.0909 137.244 11.8624Z" fill="#6C8BF5"/>
<path opacity="0.29" d="M125.332 23.2424C124.301 23.2424 123.363 23.4353 122.519 23.6282C127.114 24.9783 130.491 29.2215 130.491 34.3327C130.585 39.5403 127.114 43.9765 122.519 45.3266C123.457 45.6159 124.582 45.8088 125.614 45.7123C131.71 45.6159 136.493 40.5047 136.493 34.3327C136.493 28.1607 131.429 23.2424 125.332 23.2424Z" fill="#6C8BF5"/>
<path opacity="0.29" d="M111.358 10.2224L113.234 12.0547C114.828 11.1867 116.422 10.4152 118.204 9.83662L118.111 0.192887L126.176 0.0964433V0L112.108 0.192887L112.202 9.83662C112.014 10.0295 111.639 10.1259 111.358 10.2224Z" fill="#6C8BF5"/>
<path opacity="0.29" d="M118.673 59.3088C116.891 58.8266 115.203 58.1515 113.609 57.2836L111.921 59.1159C112.202 59.2123 112.483 59.3088 112.765 59.4052L112.858 69.0489L118.767 68.9525L118.673 59.3088Z" fill="#6C8BF5"/>
<path opacity="0.29" d="M92.0375 27.6761L101.416 27.5796C101.885 25.7473 102.542 24.0115 103.386 22.372L96.6331 15.6214L103.573 8.38862L100.572 5.30261L90.7245 15.6214L97.4772 22.372C96.6331 24.0115 95.9766 25.7473 95.5077 27.5796L86.1288 27.6761L86.3164 42.1417L92.2251 42.0452L92.0375 27.6761Z" fill="#6C8BF5"/>
<path opacity="0.29" d="M137.712 56.9937C136.399 57.7652 135.086 58.3438 133.679 58.826L138.556 63.7443L141.464 60.6583L137.712 56.9937Z" fill="#6C8BF5"/>
<path opacity="0.29" d="M97.1023 54.0051L103.667 47.0616C102.823 45.4222 102.073 43.7827 101.51 41.9504L95.6016 42.0469C96.1644 43.7828 96.8209 45.5186 97.665 47.0616L91.0998 54.0051L101.135 64.131L104.043 61.045L97.1023 54.0051Z" fill="#6C8BF5"/>
</g>
</svg>
