<svg viewBox="0 0 194 117" fill="none" xmlns="http://www.w3.org/2000/svg">
<path d="M25.9057 116.728H3.28925C2.67683 116.728 2.0897 116.484 1.65665 116.051C1.22359 115.618 0.979979 115.031 0.979248 114.418V83.2414C0.979981 82.629 1.22359 82.0419 1.65665 81.6088C2.0897 81.1758 2.67683 80.9322 3.28925 80.9315H25.9057C26.5182 80.9322 27.1053 81.1758 27.5384 81.6088C27.9714 82.0419 28.2151 82.629 28.2158 83.2414V114.418C28.2151 115.031 27.9714 115.618 27.5384 116.051C27.1053 116.484 26.5182 116.728 25.9057 116.728Z" fill="#6C8BF5"/>
<path d="M67.1497 116.728H44.5332C43.9208 116.728 43.3336 116.484 42.9006 116.051C42.4675 115.618 42.2239 115.031 42.2231 114.418V53.6703C42.2239 53.0579 42.4675 52.4708 42.9006 52.0378C43.3336 51.6048 43.9208 51.3612 44.5332 51.3605H67.1497C67.7621 51.3612 68.3493 51.6048 68.7823 52.0378C69.2154 52.4708 69.459 53.0579 69.4597 53.6703V114.418C69.459 115.031 69.2154 115.618 68.7823 116.051C68.3493 116.484 67.7621 116.728 67.1497 116.728Z" fill="#6C8BF5"/>
<path d="M108.394 116.728H85.7773C85.1649 116.728 84.5778 116.484 84.1447 116.051C83.7116 115.618 83.468 115.031 83.4673 114.418V83.2414C83.468 82.629 83.7116 82.0419 84.1447 81.6088C84.5778 81.1758 85.1649 80.9322 85.7773 80.9315H108.394C109.006 80.9322 109.593 81.1758 110.026 81.6088C110.459 82.0419 110.703 82.629 110.704 83.2414V114.418C110.703 115.031 110.459 115.618 110.026 116.051C109.593 116.484 109.006 116.728 108.394 116.728Z" fill="#6C8BF5"/>
<path d="M149.638 116.728H127.021C126.423 116.741 125.844 116.516 125.411 116.103C124.978 115.69 124.726 115.122 124.711 114.523V41.8929C124.726 41.2945 124.978 40.7263 125.411 40.313C125.844 39.8996 126.423 39.6748 127.021 39.6877H149.638C150.236 39.6748 150.815 39.8996 151.248 40.313C151.681 40.7263 151.933 41.2945 151.948 41.8929V114.523C151.933 115.122 151.681 115.69 151.248 116.103C150.815 116.516 150.236 116.741 149.638 116.728Z" fill="#6C8BF5"/>
<path d="M190.882 116.728H168.265C167.653 116.728 167.066 116.484 166.633 116.051C166.2 115.618 165.956 115.031 165.955 114.418V20.9864C165.956 20.374 166.2 19.7869 166.633 19.3538C167.066 18.9208 167.653 18.6772 168.265 18.6765H190.882C191.494 18.6772 192.081 18.9208 192.514 19.3538C192.948 19.7869 193.191 20.374 193.192 20.9864V114.418C193.191 115.031 192.948 115.618 192.514 116.051C192.081 116.484 191.494 116.728 190.882 116.728Z" fill="#6C8BF5"/>
<path d="M14.5976 71.5933C17.1763 71.5933 19.2668 69.5028 19.2668 66.9241C19.2668 64.3454 17.1763 62.255 14.5976 62.255C12.0189 62.255 9.92847 64.3454 9.92847 66.9241C9.92847 69.5028 12.0189 71.5933 14.5976 71.5933Z" fill="#757687"/>
<path d="M55.8415 41.244C58.4202 41.244 60.5107 39.1536 60.5107 36.5749C60.5107 33.9962 58.4202 31.9058 55.8415 31.9058C53.2628 31.9058 51.1724 33.9962 51.1724 36.5749C51.1724 39.1536 53.2628 41.244 55.8415 41.244Z" fill="#757687"/>
<path d="M97.0856 71.5933C99.6643 71.5933 101.755 69.5028 101.755 66.9241C101.755 64.3454 99.6643 62.255 97.0856 62.255C94.5069 62.255 92.4165 64.3454 92.4165 66.9241C92.4165 69.5028 94.5069 71.5933 97.0856 71.5933Z" fill="#757687"/>
<path d="M138.33 26.4584C140.908 26.4584 142.999 24.3679 142.999 21.7892C142.999 19.2106 140.908 17.1201 138.33 17.1201C135.751 17.1201 133.66 19.2106 133.66 21.7892C133.66 24.3679 135.751 26.4584 138.33 26.4584Z" fill="#757687"/>
<path d="M179.574 9.33826C182.152 9.33826 184.243 7.24782 184.243 4.66913C184.243 2.09044 182.152 0 179.574 0C176.995 0 174.905 2.09044 174.905 4.66913C174.905 7.24782 176.995 9.33826 179.574 9.33826Z" fill="#757687"/>
<path d="M97.1839 67.9702L55.8419 37.0042L15.0639 67.5472L14.1309 66.3012L55.8419 35.0592L96.9868 65.8782L137.875 21.1342L138.039 21.0672L179.283 4.44922L179.865 5.89322L138.785 22.4442L97.1839 67.9702Z" fill="#757687"/>
</svg>
